<svg xmlns="http://www.w3.org/2000/svg"  viewBox="0 0 50 50" width="50px" height="50px"><path d="M 24.984375 3.9863281 A 1.0001 1.0001 0 0 0 24 5 L 24 11 A 1.0001 1.0001 0 1 0 26 11 L 26 5 A 1.0001 1.0001 0 0 0 24.984375 3.9863281 z M 10.888672 9.890625 A 1.0001 1.0001 0 0 0 10.193359 11.607422 L 14.392578 15.806641 A 1.0001 1.0001 0 1 0 15.806641 14.392578 L 11.607422 10.193359 A 1.0001 1.0001 0 0 0 10.888672 9.890625 z M 39.080078 9.890625 A 1.0001 1.0001 0 0 0 38.392578 10.193359 L 34.193359 14.392578 A 1.0001 1.0001 0 1 0 35.607422 15.806641 L 39.806641 11.607422 A 1.0001 1.0001 0 0 0 39.080078 9.890625 z M 25 15 A 1.0001 1.0001 0 0 0 24.591797 15.082031 C 19.260044 15.307579 15 19.611572 15 25 C 15 30.533333 19.466667 35 25 35 C 30.533333 35 35 30.533333 35 25 C 35 19.612238 30.740979 15.308576 25.410156 15.082031 A 1.0001 1.0001 0 0 0 25 15 z M 5 24 A 1.0001 1.0001 0 1 0 5 26 L 11 26 A 1.0001 1.0001 0 1 0 11 24 L 5 24 z M 39 24 A 1.0001 1.0001 0 1 0 39 26 L 45 26 A 1.0001 1.0001 0 1 0 45 24 L 39 24 z M 15.080078 33.890625 A 1.0001 1.0001 0 0 0 14.392578 34.193359 L 10.193359 38.392578 A 1.0001 1.0001 0 1 0 11.607422 39.806641 L 15.806641 35.607422 A 1.0001 1.0001 0 0 0 15.080078 33.890625 z M 34.888672 33.890625 A 1.0001 1.0001 0 0 0 34.193359 35.607422 L 38.392578 39.806641 A 1.0001 1.0001 0 1 0 39.806641 38.392578 L 35.607422 34.193359 A 1.0001 1.0001 0 0 0 34.888672 33.890625 z M 24.984375 37.986328 A 1.0001 1.0001 0 0 0 24 39 L 24 45 A 1.0001 1.0001 0 1 0 26 45 L 26 39 A 1.0001 1.0001 0 0 0 24.984375 37.986328 z"/></svg>